<?xml version="1.0" encoding="UTF-8" standalone="no"?>
<svg
   xmlns:dc="http://purl.org/dc/elements/1.1/"
   xmlns:cc="http://creativecommons.org/ns#"
   xmlns:rdf="http://www.w3.org/1999/02/22-rdf-syntax-ns#"
   xmlns:svg="http://www.w3.org/2000/svg"
   xmlns="http://www.w3.org/2000/svg"
   xmlns:sodipodi="http://sodipodi.sourceforge.net/DTD/sodipodi-0.dtd"
   xmlns:inkscape="http://www.inkscape.org/namespaces/inkscape"
   viewBox="350 0 400 400"
   height="400"
   width="400"
   xml:space="preserve"
   version="1.1"
   id="svg2"
   inkscape:version="0.91 r13725"
   sodipodi:docname="gauge.svg"><sodipodi:namedview
     pagecolor="#ffffff"
     bordercolor="#666666"
     borderopacity="1"
     objecttolerance="10"
     gridtolerance="10"
     guidetolerance="10"
     inkscape:pageopacity="0"
     inkscape:pageshadow="2"
     inkscape:window-width="1440"
     inkscape:window-height="808"
     id="namedview9947"
     showgrid="false"
     inkscape:zoom="1.5175"
     inkscape:cx="200"
     inkscape:cy="200"
     inkscape:window-x="0"
     inkscape:window-y="0"
     inkscape:window-maximized="1"
     inkscape:current-layer="g12" /><metadata
     id="metadata8"><rdf:RDF><cc:Work
         rdf:about=""><dc:format>image/svg+xml</dc:format><dc:type
           rdf:resource="http://purl.org/dc/dcmitype/StillImage" /></cc:Work></rdf:RDF></metadata><defs
     id="defs6"><clipPath
       id="clipPath20"
       clipPathUnits="userSpaceOnUse"><path
         id="path22"
         d="m 4881.96,626.211 c 0,-18.371 -12.61,-33.215 -28.16,-33.215 l -663.64,0 c -15.55,0 -28.2,14.844 -28.2,33.215 l 0,88.633 c 0,18.371 12.65,33.23 28.2,33.23 l 663.64,0 c 15.55,0 28.16,-14.859 28.16,-33.23 l 0,-88.633" /></clipPath><clipPath
       id="clipPath32"
       clipPathUnits="userSpaceOnUse"><path
         id="path34"
         d="m 4289.35,628.672 c 0,-7.481 -6.42,-13.527 -14.39,-13.527 l -59.85,0 c -7.95,0 -14.36,6.046 -14.36,13.527 l 0,83.719 c 0,7.472 6.41,13.527 14.36,13.527 l 59.85,0 c 7.97,0 14.39,-6.055 14.39,-13.527 l 0,-83.719" /></clipPath><clipPath
       id="clipPath54"
       clipPathUnits="userSpaceOnUse"><path
         id="path56"
         d="m 4400.1,628.672 c 0,-7.481 -6.39,-13.527 -14.36,-13.527 l -59.86,0 c -7.93,0 -14.39,6.046 -14.39,13.527 l 0,83.719 c 0,7.472 6.46,13.527 14.39,13.527 l 59.86,0 c 7.97,0 14.36,-6.055 14.36,-13.527 l 0,-83.719" /></clipPath><clipPath
       id="clipPath76"
       clipPathUnits="userSpaceOnUse"><path
         id="path78"
         d="m 4510.9,628.672 c 0,-7.481 -6.48,-13.527 -14.38,-13.527 l -59.86,0 c -7.93,0 -14.37,6.046 -14.37,13.527 l 0,83.719 c 0,7.472 6.44,13.527 14.37,13.527 l 59.86,0 c 7.9,0 14.38,-6.055 14.38,-13.527 l 0,-83.719" /></clipPath><clipPath
       id="clipPath98"
       clipPathUnits="userSpaceOnUse"><path
         id="path100"
         d="m 4732.4,628.672 c 0,-7.481 -6.39,-13.527 -14.34,-13.527 l -59.88,0 c -7.93,0 -14.37,6.046 -14.37,13.527 l 0,83.719 c 0,7.472 6.44,13.527 14.37,13.527 l 59.88,0 c 7.95,0 14.34,-6.055 14.34,-13.527 l 0,-83.719" /></clipPath><clipPath
       id="clipPath120"
       clipPathUnits="userSpaceOnUse"><path
         id="path122"
         d="m 4621.66,628.672 c 0,-7.481 -6.44,-13.527 -14.34,-13.527 l -59.88,0 c -7.97,0 -14.37,6.046 -14.37,13.527 l 0,83.719 c 0,7.472 6.4,13.527 14.37,13.527 l 59.88,0 c 7.9,0 14.34,-6.055 14.34,-13.527 l 0,-83.719" /></clipPath><clipPath
       id="clipPath142"
       clipPathUnits="userSpaceOnUse"><path
         id="path144"
         d="m 4843.2,628.672 c 0,-7.481 -6.4,-13.527 -14.37,-13.527 l -59.87,0 c -7.91,0 -14.37,6.046 -14.37,13.527 l 0,83.719 c 0,7.472 6.46,13.527 14.37,13.527 l 59.87,0 c 7.97,0 14.37,-6.055 14.37,-13.527 l 0,-83.719" /></clipPath><clipPath
       id="clipPath446"
       clipPathUnits="userSpaceOnUse"><path
         id="path448"
         d="m 4617.63,1404 c 17.88,-53.3 -10.81,-111.01 -64.15,-128.89 -53.32,-17.91 -111.04,10.83 -128.93,64.16 -17.87,53.32 10.86,111.02 64.2,128.93 53.29,17.88 111,-10.85 128.88,-64.2" /></clipPath><clipPath
       id="clipPath460"
       clipPathUnits="userSpaceOnUse"><path
         id="path462"
         d="m 1665.81,1458.19 c 54.21,-44.78 61.87,-125.02 17.07,-179.24 -44.83,-54.24 -125.06,-61.86 -179.25,-17.04 -54.24,44.76 -61.86,125.02 -17.06,179.24 44.77,54.21 125.02,61.86 179.24,17.04" /></clipPath><clipPath
       id="clipPath958"
       clipPathUnits="userSpaceOnUse"><path
         id="path960"
         d="m 4382.79,2924.8 c -781.95,0 -1415.83,633.93 -1415.83,1415.86 0,781.96 633.88,1415.85 1415.83,1415.85 781.97,0 1415.85,-633.89 1415.85,-1415.85 0,-781.93 -633.88,-1415.86 -1415.85,-1415.86 m 0,2885.86 c -811.85,0 -1470,-658.12 -1470,-1470 0,-811.86 658.15,-1469.99 1470,-1469.99 811.87,0 1470,658.13 1470,1469.99 0,811.88 -658.13,1470 -1470,1470" /></clipPath><clipPath
       id="clipPath970"
       clipPathUnits="userSpaceOnUse"><path
         id="path972"
         d="m 4382.79,3009.92 c -734.95,0 -1330.74,595.8 -1330.74,1330.74 0,734.95 595.79,1330.75 1330.74,1330.75 734.95,0 1330.77,-595.8 1330.77,-1330.75 0,-734.94 -595.82,-1330.74 -1330.77,-1330.74 m 0,2746.59 c -781.95,0 -1415.83,-633.89 -1415.83,-1415.85 0,-781.93 633.88,-1415.86 1415.83,-1415.86 781.97,0 1415.85,633.93 1415.85,1415.86 0,781.96 -633.88,1415.85 -1415.85,1415.85" /></clipPath><clipPath
       id="clipPath988"
       clipPathUnits="userSpaceOnUse"><path
         id="path990"
         d="m 4576.21,4340.66 c 0,-106.82 -86.6,-193.43 -193.42,-193.43 -106.81,0 -193.41,86.61 -193.41,193.43 0,106.82 86.6,193.41 193.41,193.41 106.82,0 193.42,-86.59 193.42,-193.41" /></clipPath><clipPath
       id="clipPath1256"
       clipPathUnits="userSpaceOnUse"><path
         id="path1258"
         d="m 4885.7,3362.64 c 0,-25.66 -17.66,-46.41 -39.37,-46.41 l -927.09,0 c -21.72,0 -39.35,20.75 -39.35,46.41 l 0,123.81 c 0,25.66 17.63,46.41 39.35,46.41 l 927.09,0 c 21.71,0 39.37,-20.75 39.37,-46.41 l 0,-123.81" /></clipPath><clipPath
       id="clipPath1268"
       clipPathUnits="userSpaceOnUse"><path
         id="path1270"
         d="m 4057.83,3366.09 c 0,-10.45 -8.98,-18.9 -20.09,-18.9 l -83.61,0 c -11.11,0 -20.08,8.45 -20.08,18.9 l 0,116.9 c 0,10.46 8.97,18.92 20.08,18.92 l 83.61,0 c 11.11,0 20.09,-8.46 20.09,-18.92 l 0,-116.9" /></clipPath><clipPath
       id="clipPath1288"
       clipPathUnits="userSpaceOnUse"><path
         id="path1290"
         d="m 4036.87,3425.84 c 0,-41.01 -15.23,-63.64 -41.96,-63.64 -23.55,0 -39.53,22.05 -39.87,61.99 0,40.44 17.42,62.69 41.91,62.69 25.44,0 39.92,-22.64 39.92,-61.04 z m -65.51,-1.84 c 0,-31.37 9.63,-49.2 24.5,-49.2 16.68,0 24.65,19.5 24.65,50.27 0,29.72 -7.6,49.22 -24.47,49.22 -14.29,0 -24.68,-17.46 -24.68,-50.29" /></clipPath><clipPath
       id="clipPath1304"
       clipPathUnits="userSpaceOnUse"><path
         id="path1306"
         d="m 4212.57,3366.09 c 0,-10.45 -8.98,-18.9 -20.09,-18.9 l -83.61,0 c -11.1,0 -20.08,8.45 -20.08,18.9 l 0,116.9 c 0,10.46 8.98,18.92 20.08,18.92 l 83.61,0 c 11.11,0 20.09,-8.46 20.09,-18.92 l 0,-116.9" /></clipPath><clipPath
       id="clipPath1324"
       clipPathUnits="userSpaceOnUse"><path
         id="path1326"
         d="m 4191.61,3425.84 c 0,-41.01 -15.24,-63.64 -41.96,-63.64 -23.56,0 -39.54,22.05 -39.88,61.99 0,40.44 17.43,62.69 41.93,62.69 25.43,0 39.91,-22.64 39.91,-61.04 z m -65.52,-1.84 c 0,-31.37 9.65,-49.2 24.5,-49.2 16.71,0 24.69,19.5 24.69,50.27 0,29.72 -7.61,49.22 -24.53,49.22 -14.28,0 -24.66,-17.46 -24.66,-50.29" /></clipPath><clipPath
       id="clipPath1340"
       clipPathUnits="userSpaceOnUse"><path
         id="path1342"
         d="m 4367.32,3366.09 c 0,-10.45 -9,-18.9 -20.09,-18.9 l -83.62,0 c -11.11,0 -20.09,8.45 -20.09,18.9 l 0,116.9 c 0,10.46 8.98,18.92 20.09,18.92 l 83.62,0 c 11.09,0 20.09,-8.46 20.09,-18.92 l 0,-116.9" /></clipPath><clipPath
       id="clipPath1360"
       clipPathUnits="userSpaceOnUse"><path
         id="path1362"
         d="m 4266.9,3363.19 0,10.03 12.81,12.44 c 30.82,29.3 44.74,44.9 44.9,63.08 0,12.24 -5.92,23.59 -23.92,23.59 -10.98,0 -20.04,-5.57 -25.62,-10.22 l -5.18,11.51 c 8.35,7.04 20.23,12.24 34.14,12.24 25.97,0 36.92,-17.79 36.92,-35.06 0,-22.26 -16.12,-40.28 -41.55,-64.76 l -9.69,-8.92 0,-0.36 54.24,0 0,-13.57 -77.05,0" /></clipPath><clipPath
       id="clipPath1376"
       clipPathUnits="userSpaceOnUse"><path
         id="path1378"
         d="m 4676.79,3366.09 c 0,-10.45 -8.99,-18.9 -20.09,-18.9 l -83.62,0 c -11.08,0 -20.1,8.45 -20.1,18.9 l 0,116.9 c 0,10.46 9.02,18.92 20.1,18.92 l 83.62,0 c 11.1,0 20.09,-8.46 20.09,-18.92 l 0,-116.9" /></clipPath><clipPath
       id="clipPath1396"
       clipPathUnits="userSpaceOnUse"><path
         id="path1398"
         d="m 4581.68,3382.95 c 4.61,-2.96 15.39,-7.57 26.7,-7.57 21,0 27.48,13.33 27.3,23.35 -0.19,16.9 -15.4,24.14 -31.19,24.14 l -9.08,0 0,12.25 9.08,0 c 11.87,0 26.92,6.13 26.92,20.39 0,9.67 -6.15,18.2 -21.16,18.2 -9.66,0 -18.92,-4.25 -24.14,-7.98 l -4.27,11.88 c 6.34,4.65 18.57,9.27 31.55,9.27 23.76,0 34.54,-14.08 34.54,-28.77 0,-12.42 -7.45,-22.99 -22.28,-28.38 l 0,-0.35 c 14.83,-2.99 26.94,-14.12 26.94,-31.02 0,-19.3 -15.05,-36.16 -44,-36.16 -13.55,0 -25.43,4.26 -31.37,8.15 l 4.46,12.6" /></clipPath><clipPath
       id="clipPath1412"
       clipPathUnits="userSpaceOnUse"><path
         id="path1414"
         d="m 4522.05,3366.09 c 0,-10.45 -9.01,-18.9 -20.08,-18.9 l -83.63,0 c -11.08,0 -20.08,8.45 -20.08,18.9 l 0,116.9 c 0,10.46 9,18.92 20.08,18.92 l 83.63,0 c 11.07,0 20.08,-8.46 20.08,-18.92 l 0,-116.9" /></clipPath><clipPath
       id="clipPath1432"
       clipPathUnits="userSpaceOnUse"><path
         id="path1434"
         d="m 4489.64,3473.41 c -3.34,0.21 -7.59,0 -12.25,-0.73 -25.61,-4.25 -39.15,-23.03 -41.94,-42.89 l 0.56,0 c 5.77,7.62 15.77,13.95 29.14,13.95 21.35,0 36.38,-15.42 36.38,-38.99 0,-22.07 -15.03,-42.49 -40.08,-42.49 -25.81,0 -42.68,20.04 -42.68,51.39 0,23.76 8.53,42.5 20.41,54.38 10,9.86 23.36,15.96 38.6,17.83 4.83,0.71 8.9,0.94 11.86,0.94 l 0,-13.39 z m -28,-98.52 c 13.91,0 23.36,11.7 23.36,28.94 0,17.26 -9.82,27.67 -24.84,27.67 -9.84,0 -18.95,-6.15 -23.4,-14.87 -1.12,-1.85 -1.84,-4.25 -1.84,-7.24 0.37,-19.84 9.46,-34.5 26.53,-34.5 l 0.19,0" /></clipPath><clipPath
       id="clipPath1448"
       clipPathUnits="userSpaceOnUse"><path
         id="path1450"
         d="m 4831.52,3366.09 c 0,-10.45 -8.98,-18.9 -20.08,-18.9 l -83.63,0 c -11.1,0 -20.08,8.45 -20.08,18.9 l 0,116.9 c 0,10.46 8.98,18.92 20.08,18.92 l 83.63,0 c 11.1,0 20.08,-8.46 20.08,-18.92 l 0,-116.9" /></clipPath><clipPath
       id="clipPath1468"
       clipPathUnits="userSpaceOnUse"><path
         id="path1470"
         d="m 4807.65,3484.86 0,-10.77 -52.49,-109.87 -16.89,0 52.33,106.72 0,0.36 -59.01,0 0,13.56 76.06,0" /></clipPath><clipPath
       id="clipPath1768"
       clipPathUnits="userSpaceOnUse"><path
         id="path1770"
         d="m 1545.94,4259.24 c 19.9,-59.33 -12.04,-123.54 -71.38,-143.45 -59.35,-19.91 -123.56,12.07 -143.43,71.41 -19.9,59.31 12.07,123.52 71.39,143.43 59.32,19.9 123.51,-12.07 143.42,-71.39" /></clipPath></defs><g
     id="g12"
     transform="matrix(0.125,0,0,-0.125,-2.635914,744.72817)"><path
       inkscape:connector-curvature="0"
       d="m 4361.56,2423.88 -47.18,-8.33 -22.34,126.74 47.16,8.3 22.36,-126.71"
       style="fill:#ffffff;fill-opacity:1;fill-rule:nonzero;stroke:none"
       id="path220" /><path
       inkscape:connector-curvature="0"
       d="m 4728.9,2416.02 -47.19,8.31 22.39,126.71 47.13,-8.32 -22.33,-126.7"
       style="fill:#ffffff;fill-opacity:1;fill-rule:nonzero;stroke:none"
       id="path246" /><path
       inkscape:connector-curvature="0"
       d="m 4509.63,2459.61 23.9766,0 0,104.734 -23.9766,0 0,-104.734 z"
       style="fill:#ffffff;fill-opacity:1;fill-rule:nonzero;stroke:none"
       id="path248" /><path
       inkscape:connector-curvature="0"
       d="m 4163.65,2398.6 -22.5,-8.18 -35.83,98.39 22.52,8.2 35.81,-98.41"
       style="fill:#ffffff;fill-opacity:1;fill-rule:nonzero;stroke:none"
       id="path250" /><path
       inkscape:connector-curvature="0"
       d="m 4902.11,2390.42 -22.5,8.18 35.82,98.41 22.48,-8.2 -35.8,-98.39"
       style="fill:#ffffff;fill-opacity:1;fill-rule:nonzero;stroke:none"
       id="path272" /><path
       inkscape:connector-curvature="0"
       d="m 4533.61,2459.61 -23.98,0 0.02,104.73 23.92,0 0.04,-104.73"
       style="fill:#ffffff;fill-opacity:1;fill-rule:nonzero;stroke:none"
       id="path274" /><path
       inkscape:connector-curvature="0"
       d="m 4163.1,2398.05 -22.53,-8.2 -35.81,98.45 22.5,8.15 35.84,-98.4"
       style="fill:#ffffff;fill-opacity:1;fill-rule:nonzero;stroke:none"
       id="path276" /><path
       inkscape:connector-curvature="0"
       d="m 4902.8,2390.72 -22.5,8.24 35.81,98.38 22.49,-8.19 -35.8,-98.43"
       style="fill:#ffffff;fill-opacity:1;fill-rule:nonzero;stroke:none"
       id="path298" /><path
       inkscape:connector-curvature="0"
       d="m 4163.65,2398.6 -22.5,-8.18 -35.83,98.39 22.52,8.2 35.81,-98.41"
       style="fill:#ffffff;fill-opacity:1;fill-rule:nonzero;stroke:none"
       id="path300" /><path
       inkscape:connector-curvature="0"
       d="m 4521.96,2594.12 c -662.74,0 -1200,-537.26 -1200,-1200.01 0,-662.743 537.26,-1200.001 1200,-1200.001 662.74,0 1200,537.258 1200,1200.001 0,662.75 -537.26,1200.01 -1200,1200.01 z m 0,-2365.702 c -643.8,0 -1165.71,521.902 -1165.71,1165.692 0,643.82 521.91,1165.73 1165.71,1165.73 643.8,0 1165.71,-521.91 1165.71,-1165.73 0,-643.79 -521.91,-1165.692 -1165.71,-1165.692"
       style="fill:#ffffff;fill-opacity:1;fill-rule:nonzero;stroke:none"
       id="path454" /><g
       id="g954"><g
         id="g956"
         clip-path="url(#clipPath958)"><path
           inkscape:connector-curvature="0"
           d="m 4382.79,2924.8 c -781.95,0 -1415.83,633.93 -1415.83,1415.86 0,781.96 633.88,1415.85 1415.83,1415.85 781.97,0 1415.85,-633.89 1415.85,-1415.85 0,-781.93 -633.88,-1415.86 -1415.85,-1415.86 m 0,2885.86 c -811.85,0 -1470,-658.12 -1470,-1470 0,-811.86 658.15,-1469.99 1470,-1469.99 811.87,0 1470,658.13 1470,1469.99 0,811.88 -658.13,1470 -1470,1470"
           id="path962" /><path
           inkscape:connector-curvature="0"
           d="m 4382.79,2924.8 c -781.95,0 -1415.83,633.93 -1415.83,1415.86 0,781.96 633.88,1415.85 1415.83,1415.85 781.97,0 1415.85,-633.89 1415.85,-1415.85 0,-781.93 -633.88,-1415.86 -1415.85,-1415.86 m 0,2885.86 c -811.85,0 -1470,-658.12 -1470,-1470 0,-811.86 658.15,-1469.99 1470,-1469.99 811.87,0 1470,658.13 1470,1469.99 0,811.88 -658.13,1470 -1470,1470"
           id="path964" /></g></g><g
       id="g966"><g
         id="g968"
         clip-path="url(#clipPath970)"><path
           inkscape:connector-curvature="0"
           d="m 4382.79,3009.92 c -734.95,0 -1330.74,595.8 -1330.74,1330.74 0,734.95 595.79,1330.75 1330.74,1330.75 734.95,0 1330.77,-595.8 1330.77,-1330.75 0,-734.94 -595.82,-1330.74 -1330.77,-1330.74 m 0,2746.59 c -781.95,0 -1415.83,-633.89 -1415.83,-1415.85 0,-781.93 633.88,-1415.86 1415.83,-1415.86 781.97,0 1415.85,633.93 1415.85,1415.86 0,781.96 -633.88,1415.85 -1415.85,1415.85"
           id="path974" /><path
           inkscape:connector-curvature="0"
           d="m 4382.79,3009.92 c -734.95,0 -1330.74,595.8 -1330.74,1330.74 0,734.95 595.79,1330.75 1330.74,1330.75 734.95,0 1330.77,-595.8 1330.77,-1330.75 0,-734.94 -595.82,-1330.74 -1330.77,-1330.74 m 0,2746.59 c -781.95,0 -1415.83,-633.89 -1415.83,-1415.85 0,-781.93 633.88,-1415.86 1415.83,-1415.86 781.97,0 1415.85,633.93 1415.85,1415.86 0,781.96 -633.88,1415.85 -1415.85,1415.85"
           id="path976" /><path
           inkscape:connector-curvature="0"
           d="m 4382.79,3009.92 c -734.95,0 -1330.74,595.8 -1330.74,1330.74 0,734.95 595.79,1330.75 1330.74,1330.75 734.95,0 1330.77,-595.8 1330.77,-1330.75 0,-734.94 -595.82,-1330.74 -1330.77,-1330.74 m 0,2746.59 c -781.95,0 -1415.83,-633.89 -1415.83,-1415.85 0,-781.93 633.88,-1415.86 1415.83,-1415.86 781.97,0 1415.85,633.93 1415.85,1415.86 0,781.96 -633.88,1415.85 -1415.85,1415.85"
           id="path978" /></g></g><path
       inkscape:connector-curvature="0"
       d="m 5713.56,4340.66 c 0,-734.94 -595.82,-1330.74 -1330.77,-1330.74 -734.95,0 -1330.74,595.8 -1330.74,1330.74 0,734.95 595.79,1330.75 1330.74,1330.75 734.95,0 1330.77,-595.8 1330.77,-1330.75"
       style="fill:#1b1919;fill-opacity:1;fill-rule:nonzero;stroke:none"
       id="path980" /><path
       inkscape:connector-curvature="0"
       d="m 5659.4,4340.66 c 0,-705.02 -571.56,-1276.61 -1276.61,-1276.61 -705.02,0 -1276.58,571.59 -1276.58,1276.61 0,705.05 571.56,1276.59 1276.58,1276.59 705.05,0 1276.61,-571.54 1276.61,-1276.59"
       style="fill:#2e2d2d;fill-opacity:1;fill-rule:nonzero;stroke:none"
       id="path982" /><g
       id="g984"><g
         id="g986"
         clip-path="url(#clipPath988)"><path
           inkscape:connector-curvature="0"
           d="m 4576.21,4340.66 c 0,-106.82 -86.6,-193.43 -193.42,-193.43 -106.81,0 -193.41,86.61 -193.41,193.43 0,106.82 86.6,193.41 193.41,193.41 106.82,0 193.42,-86.59 193.42,-193.41"
           id="path992" /><path
           inkscape:connector-curvature="0"
           d="m 4576.21,4340.66 c 0,-106.82 -86.6,-193.43 -193.42,-193.43 -106.81,0 -193.41,86.61 -193.41,193.43 0,106.82 86.6,193.41 193.41,193.41 106.82,0 193.42,-86.59 193.42,-193.41"
           id="path994" /></g></g><path
       inkscape:connector-curvature="0"
       d="m 4479.52,4340.66 c 0,-53.39 -43.29,-96.71 -96.73,-96.71 -53.41,0 -96.7,43.32 -96.7,96.71 0,53.42 43.29,96.71 96.7,96.71 53.44,0 96.73,-43.29 96.73,-96.71"
       style="fill:#be1c2e;fill-opacity:1;fill-rule:nonzero;stroke:none"
       id="path996" /><path
       inkscape:connector-curvature="0"
       d="m 4396.04,5428.93 c 0,-5.34 -5.9,-9.65 -13.25,-9.65 -7.32,0 -13.26,4.31 -13.26,9.65 l 0,139.99 c 0,5.34 5.94,9.65 13.26,9.65 7.35,0 13.25,-4.31 13.25,-9.65 l 0,-139.99"
       style="fill:#be1c2e;fill-opacity:1;fill-rule:nonzero;stroke:none"
       id="path998" /><path
       inkscape:connector-curvature="0"
       d="m 3952.29,5340.23 c 2.18,-4.85 -1.5,-11.24 -8.2,-14.2 -6.68,-2.98 -13.88,-1.46 -16.06,3.43 l -56.95,127.88 c -2.16,4.89 1.52,11.25 8.19,14.21 6.71,2.97 13.91,1.48 16.07,-3.42 l 56.95,-127.9"
       style="fill:#be1c2e;fill-opacity:1;fill-rule:nonzero;stroke:none"
       id="path1000" /><path
       inkscape:connector-curvature="0"
       d="m 3582.96,5078.74 c 3.94,-3.58 3.19,-10.9 -1.75,-16.35 -4.86,-5.44 -12.07,-6.98 -16.01,-3.4 l -104.07,93.68 c -3.98,3.59 -3.2,10.9 1.72,16.31 4.9,5.44 12.08,7.01 16.05,3.42 l 104.06,-93.66"
       style="fill:#be1c2e;fill-opacity:1;fill-rule:nonzero;stroke:none"
       id="path1002" /><path
       inkscape:connector-curvature="0"
       d="m 3351.92,4689.59 c 5.05,-1.64 7.33,-8.66 5.05,-15.61 -2.24,-6.95 -8.18,-11.28 -13.28,-9.64 l -133.15,43.26 c -5.09,1.66 -7.33,8.65 -5.07,15.59 2.3,6.97 8.2,11.3 13.3,9.65 l 133.15,-43.25"
       style="fill:#be1c2e;fill-opacity:1;fill-rule:nonzero;stroke:none"
       id="path1004" /><path
       inkscape:connector-curvature="0"
       d="m 3299.11,4240.11 c 5.3,0.57 10.23,-4.9 10.99,-12.18 0.76,-7.28 -2.91,-13.66 -8.21,-14.22 l -139.26,-14.64 c -5.29,-0.55 -10.19,4.94 -10.97,12.22 -0.74,7.27 2.91,13.65 8.24,14.19 l 139.21,14.63"
       style="fill:#be1c2e;fill-opacity:1;fill-rule:nonzero;stroke:none"
       id="path1006" /><path
       inkscape:connector-curvature="0"
       d="m 3433.71,3808.05 c 4.65,2.66 11.31,-0.33 14.99,-6.66 3.66,-6.36 2.92,-13.67 -1.72,-16.33 l -121.24,-70.01 c -4.66,-2.69 -11.35,0.31 -15,6.66 -3.67,6.38 -2.92,13.67 1.71,16.31 l 121.26,70.03"
       style="fill:#be1c2e;fill-opacity:1;fill-rule:nonzero;stroke:none"
       id="path1008" /><path
       inkscape:connector-curvature="0"
       d="m 5318.64,3785.06 c -4.65,2.64 -5.41,9.98 -1.75,16.33 3.7,6.32 10.36,9.32 14.99,6.66 l 121.25,-70.03 c 4.63,-2.64 5.37,-9.98 1.71,-16.28 -3.67,-6.35 -10.35,-9.36 -15.02,-6.67 l -121.18,69.99"
       style="fill:#be1c2e;fill-opacity:1;fill-rule:nonzero;stroke:none"
       id="path1010" /><path
       inkscape:connector-curvature="0"
       d="m 5463.71,4213.74 c -5.33,0.52 -9,6.91 -8.24,14.21 0.8,7.28 5.66,12.72 10.98,12.16 l 139.24,-14.63 c 5.32,-0.54 8.97,-6.93 8.24,-14.17 -0.84,-7.3 -5.72,-12.77 -11.04,-12.21 l -139.18,14.64"
       style="fill:#be1c2e;fill-opacity:1;fill-rule:nonzero;stroke:none"
       id="path1012" /><path
       inkscape:connector-curvature="0"
       d="m 5421.89,4664.34 c -5.09,-1.66 -11.03,2.71 -13.31,9.65 -2.23,6.97 0,13.92 5.08,15.6 l 133.15,43.25 c 5.09,1.68 11,-2.68 13.27,-9.62 2.22,-6.97 0.02,-13.96 -5.06,-15.59 l -133.13,-43.29"
       style="fill:#be1c2e;fill-opacity:1;fill-rule:nonzero;stroke:none"
       id="path1014" /><path
       inkscape:connector-curvature="0"
       d="m 5200.38,5059 c -3.93,-3.61 -11.16,-2.02 -16.05,3.41 -4.89,5.46 -5.65,12.73 -1.71,16.33 l 104.06,93.69 c 3.96,3.56 11.16,1.99 16.06,-3.45 4.84,-5.46 5.66,-12.72 1.68,-16.31 L 5200.38,5059"
       style="fill:#be1c2e;fill-opacity:1;fill-rule:nonzero;stroke:none"
       id="path1016" /><path
       inkscape:connector-curvature="0"
       d="m 4837.52,5329.46 c -2.13,-4.94 -9.35,-6.41 -16.04,-3.43 -6.67,3.02 -10.38,9.34 -8.21,14.2 l 56.97,127.93 c 2.16,4.88 9.37,6.36 16.05,3.4 6.68,-3.01 10.37,-9.33 8.17,-14.22 l -56.94,-127.88"
       style="fill:#be1c2e;fill-opacity:1;fill-rule:nonzero;stroke:none"
       id="path1018" /><path
       inkscape:connector-curvature="0"
       d="m 4280.78,5496.82 c 1.14,-10.65 -6.62,-20.2 -17.27,-21.31 -10.63,-1.14 -20.19,6.6 -21.3,17.25 -1.12,10.65 6.58,20.2 17.25,21.33 10.65,1.12 20.19,-6.63 21.32,-17.27"
       style="fill:#cdcac9;fill-opacity:1;fill-rule:nonzero;stroke:none"
       id="path1020" /><path
       inkscape:connector-curvature="0"
       d="m 4042.64,5450.34 c 3.3,-10.18 -2.27,-21.11 -12.47,-24.43 -10.21,-3.29 -21.15,2.25 -24.43,12.46 -3.32,10.16 2.26,21.11 12.46,24.43 10.18,3.32 21.11,-2.26 24.44,-12.46"
       style="fill:#cdcac9;fill-opacity:1;fill-rule:nonzero;stroke:none"
       id="path1022" /><path
       inkscape:connector-curvature="0"
       d="m 3819.34,5355.36 c 5.35,-9.26 2.19,-21.12 -7.11,-26.48 -9.3,-5.37 -21.09,-2.2 -26.46,7.09 -5.4,9.27 -2.19,21.16 7.06,26.51 9.3,5.35 21.17,2.19 26.51,-7.12"
       style="fill:#cdcac9;fill-opacity:1;fill-rule:nonzero;stroke:none"
       id="path1024" /><path
       inkscape:connector-curvature="0"
       d="m 3620.7,5216.05 c 7.15,-7.94 6.53,-20.23 -1.46,-27.4 -7.97,-7.17 -20.22,-6.52 -27.37,1.47 -7.18,7.93 -6.53,20.2 1.42,27.38 7.94,7.15 20.25,6.52 27.41,-1.45"
       style="fill:#cdcac9;fill-opacity:1;fill-rule:nonzero;stroke:none"
       id="path1026" /><path
       inkscape:connector-curvature="0"
       d="m 3455.35,5038.49 c 8.63,-6.31 10.59,-18.46 4.26,-27.1 -6.31,-8.69 -18.42,-10.59 -27.07,-4.28 -8.69,6.25 -10.58,18.39 -4.29,27.07 6.3,8.67 18.41,10.57 27.1,4.31"
       style="fill:#cdcac9;fill-opacity:1;fill-rule:nonzero;stroke:none"
       id="path1028" /><path
       inkscape:connector-curvature="0"
       d="m 3330.54,4830.41 c 9.78,-4.37 14.18,-15.87 9.79,-25.64 -4.37,-9.81 -15.81,-14.18 -25.59,-9.8 -9.78,4.33 -14.15,15.8 -9.82,25.59 4.36,9.79 15.85,14.21 25.62,9.85"
       style="fill:#cdcac9;fill-opacity:1;fill-rule:nonzero;stroke:none"
       id="path1030" /><path
       inkscape:connector-curvature="0"
       d="m 3251.68,4600.91 c 10.49,-2.23 17.19,-12.53 14.95,-23.03 -2.24,-10.49 -12.52,-17.15 -23.01,-14.88 -10.46,2.22 -17.15,12.46 -14.91,22.98 2.21,10.49 12.5,17.15 22.97,14.93"
       style="fill:#cdcac9;fill-opacity:1;fill-rule:nonzero;stroke:none"
       id="path1032" /><path
       inkscape:connector-curvature="0"
       d="m 3222.3,4360.08 c 10.7,-0.03 19.38,-8.73 19.38,-19.47 0,-10.73 -8.68,-19.37 -19.38,-19.36 -10.72,-0.01 -19.37,8.69 -19.37,19.41 0,10.72 8.65,19.42 19.37,19.42"
       style="fill:#cdcac9;fill-opacity:1;fill-rule:nonzero;stroke:none"
       id="path1034" /><path
       inkscape:connector-curvature="0"
       d="m 3243.62,4118.34 c 10.47,2.24 20.8,-4.49 23.01,-14.96 2.21,-10.49 -4.46,-20.75 -14.95,-22.95 -10.47,-2.24 -20.73,4.41 -22.97,14.89 -2.26,10.55 4.45,20.78 14.91,23.02"
       style="fill:#cdcac9;fill-opacity:1;fill-rule:nonzero;stroke:none"
       id="path1036" /><path
       inkscape:connector-curvature="0"
       d="m 3314.71,3886.35 c 9.82,4.35 21.31,-0.04 25.62,-9.87 4.39,-9.78 -0.01,-21.19 -9.83,-25.54 -9.73,-4.39 -21.21,0.02 -25.58,9.81 -4.4,9.82 0.04,21.27 9.79,25.6"
       style="fill:#cdcac9;fill-opacity:1;fill-rule:nonzero;stroke:none"
       id="path1038" /><path
       inkscape:connector-curvature="0"
       d="m 3432.5,3674.21 c 8.71,6.29 20.86,4.38 27.13,-4.32 6.31,-8.71 4.35,-20.76 -4.31,-27.02 -8.66,-6.3 -20.77,-4.39 -27.07,4.28 -6.33,8.68 -4.4,20.8 4.25,27.06"
       style="fill:#cdcac9;fill-opacity:1;fill-rule:nonzero;stroke:none"
       id="path1040" /><path
       inkscape:connector-curvature="0"
       d="m 5310.26,3642.81 c -8.65,6.32 -10.6,18.49 -4.24,27.1 6.3,8.75 18.37,10.61 27.02,4.3 8.67,-6.26 10.59,-18.35 4.31,-27.06 -6.33,-8.71 -18.42,-10.6 -27.09,-4.34"
       style="fill:#cdcac9;fill-opacity:1;fill-rule:nonzero;stroke:none"
       id="path1042" /><path
       inkscape:connector-curvature="0"
       d="m 5435.11,3850.91 c -9.77,4.38 -14.23,15.89 -9.82,25.57 4.4,9.93 15.77,14.23 25.55,9.87 9.77,-4.33 14.18,-15.76 9.82,-25.6 -4.37,-9.81 -15.8,-14.22 -25.55,-9.84"
       style="fill:#cdcac9;fill-opacity:1;fill-rule:nonzero;stroke:none"
       id="path1044" /><path
       inkscape:connector-curvature="0"
       d="m 5513.93,4080.38 c -10.47,2.28 -17.21,12.6 -14.9,23.03 2.2,10.56 12.46,17.2 22.94,14.89 10.46,-2.2 17.15,-12.42 14.93,-22.98 -2.23,-10.51 -12.53,-17.14 -22.97,-14.94"
       style="fill:#cdcac9;fill-opacity:1;fill-rule:nonzero;stroke:none"
       id="path1046" /><path
       inkscape:connector-curvature="0"
       d="m 5543.3,4321.23 c -10.69,0.04 -19.46,8.73 -19.36,19.43 0,10.81 8.64,19.42 19.34,19.38 10.73,0.04 19.4,-8.61 19.4,-19.38 0.02,-10.75 -8.67,-19.42 -19.38,-19.43"
       style="fill:#cdcac9;fill-opacity:1;fill-rule:nonzero;stroke:none"
       id="path1048" /><path
       inkscape:connector-curvature="0"
       d="m 5522,4562.97 c -10.49,-2.2 -20.84,4.5 -22.97,14.94 -2.28,10.57 4.4,20.77 14.9,22.97 10.44,2.25 20.73,-4.4 22.97,-14.9 2.23,-10.52 -4.44,-20.79 -14.9,-23.01"
       style="fill:#cdcac9;fill-opacity:1;fill-rule:nonzero;stroke:none"
       id="path1050" /><path
       inkscape:connector-curvature="0"
       d="m 5450.88,4794.94 c -9.79,-4.29 -21.31,0.04 -25.59,9.87 -4.41,9.88 0,21.23 9.82,25.54 9.72,4.42 21.18,0.06 25.55,-9.79 4.38,-9.82 -0.04,-21.29 -9.78,-25.62"
       style="fill:#cdcac9;fill-opacity:1;fill-rule:nonzero;stroke:none"
       id="path1052" /><path
       inkscape:connector-curvature="0"
       d="m 5333.08,5007.11 c -8.67,-6.26 -20.86,-4.4 -27.06,4.28 -6.41,8.79 -4.43,20.79 4.27,27.05 8.64,6.29 20.71,4.43 27.06,-4.26 6.35,-8.72 4.38,-20.82 -4.27,-27.07"
       style="fill:#cdcac9;fill-opacity:1;fill-rule:nonzero;stroke:none"
       id="path1054" /><path
       inkscape:connector-curvature="0"
       d="m 5173.79,5190.12 c -7.21,-7.93 -19.53,-8.64 -27.43,-1.41 -8.02,7.24 -8.62,19.38 -1.43,27.31 7.12,7.98 19.36,8.65 27.36,1.46 8.02,-7.19 8.61,-19.43 1.5,-27.36"
       style="fill:#cdcac9;fill-opacity:1;fill-rule:nonzero;stroke:none"
       id="path1056" /><path
       inkscape:connector-curvature="0"
       d="m 4979.89,5336.01 c -5.41,-9.25 -17.32,-12.5 -26.51,-7.08 -9.4,5.41 -12.5,17.17 -7.11,26.42 5.33,9.29 17.13,12.5 26.47,7.13 9.33,-5.4 12.49,-17.24 7.15,-26.47"
       style="fill:#cdcac9;fill-opacity:1;fill-rule:nonzero;stroke:none"
       id="path1058" /><path
       inkscape:connector-curvature="0"
       d="m 4759.9,5438.4 c -3.36,-10.18 -14.32,-15.81 -24.45,-12.47 -10.31,3.37 -15.81,14.23 -12.44,24.4 3.26,10.18 14.12,15.77 24.39,12.46 10.24,-3.31 15.8,-14.23 12.5,-24.39"
       style="fill:#cdcac9;fill-opacity:1;fill-rule:nonzero;stroke:none"
       id="path1060" /><path
       inkscape:connector-curvature="0"
       d="m 4523.41,5492.82 c -1.17,-10.67 -10.69,-18.46 -21.32,-17.27 -10.77,1.13 -18.43,10.61 -17.23,21.27 1.07,10.61 10.53,18.39 21.27,17.27 10.7,-1.14 18.41,-10.64 17.28,-21.27"
       style="fill:#cdcac9;fill-opacity:1;fill-rule:nonzero;stroke:none"
       id="path1062" /><path
       inkscape:connector-curvature="0"
       d="m 4179.77,5387.74 c 1.37,-6.43 -4.69,-13.17 -13.54,-15.04 -8.82,-1.88 -17.12,1.81 -18.47,8.22 l -35.88,168.81 c -1.37,6.48 4.67,13.16 13.51,15.07 8.86,1.86 17.15,-1.81 18.46,-8.25 l 35.92,-168.81"
       style="fill:#5f6062;fill-opacity:1;fill-rule:nonzero;stroke:none"
       id="path1064" /><path
       inkscape:connector-curvature="0"
       d="m 3776.84,5215.81 c 3.84,-5.36 1.05,-13.93 -6.24,-19.26 -7.32,-5.31 -16.36,-5.31 -20.22,0 l -101.47,139.65 c -3.87,5.33 -1.06,13.89 6.26,19.22 7.31,5.33 16.38,5.34 20.22,0 l 101.45,-139.61"
       style="fill:#5f6062;fill-opacity:1;fill-rule:nonzero;stroke:none"
       id="path1066" /><path
       inkscape:connector-curvature="0"
       d="m 3478.69,4894.84 c 5.69,-3.33 6.62,-12.3 2.13,-20.15 -4.5,-7.81 -12.77,-11.5 -18.48,-8.22 l -149.47,86.31 c -5.74,3.29 -6.64,12.27 -2.17,20.1 4.56,7.84 12.83,11.54 18.52,8.22 l 149.47,-86.26"
       style="fill:#5f6062;fill-opacity:1;fill-rule:nonzero;stroke:none"
       id="path1068" /><path
       inkscape:connector-curvature="0"
       d="m 3336.84,4480.35 c 6.54,-0.76 11.07,-8.53 10.14,-17.53 -0.96,-8.99 -7,-15.74 -13.52,-15.01 l -171.67,18.01 c -6.53,0.72 -11.04,8.5 -10.13,17.52 0.95,8.99 7,15.73 13.58,15.01 l 171.6,-18"
       style="fill:#5f6062;fill-opacity:1;fill-rule:nonzero;stroke:none"
       id="path1070" /><path
       inkscape:connector-curvature="0"
       d="m 3375.86,4044 c 6.28,1.98 13.58,-3.29 16.4,-11.89 2.78,-8.59 0,-17.23 -6.24,-19.21 l -164.17,-53.36 c -6.25,-2.01 -13.56,3.27 -16.4,11.88 -2.76,8.58 0,17.25 6.29,19.21 l 164.12,53.37"
       style="fill:#5f6062;fill-opacity:1;fill-rule:nonzero;stroke:none"
       id="path1072" /><path
       inkscape:connector-curvature="0"
       d="m 3588.99,3661.23 c 4.94,4.36 13.72,2.53 19.81,-4.18 6.04,-6.69 7.02,-15.73 2.08,-20.1 l -128.23,-115.52 c -4.91,-4.37 -13.71,-2.52 -19.8,4.2 -6.04,6.72 -7.01,15.76 -2.08,20.09 l 128.22,115.51"
       style="fill:#5f6062;fill-opacity:1;fill-rule:nonzero;stroke:none"
       id="path1074" /><path
       inkscape:connector-curvature="0"
       d="m 5154.7,3636.89 c -4.85,4.52 -3.98,13.41 2.04,20.16 6.05,6.71 14.96,8.64 19.79,4.19 l 128.31,-115.47 c 4.8,-4.4 3.91,-13.33 -2.1,-20.14 -6.08,-6.68 -14.98,-8.62 -19.81,-4.15 l -128.23,115.41"
       style="fill:#5f6062;fill-opacity:1;fill-rule:nonzero;stroke:none"
       id="path1076" /><path
       inkscape:connector-curvature="0"
       d="m 5379.59,4012.87 c -6.27,2.1 -9.08,10.59 -6.3,19.24 2.81,8.58 10.13,13.99 16.35,11.85 l 164.15,-53.29 c 6.25,-2.05 9.08,-10.59 6.31,-19.24 -2.81,-8.6 -10.14,-13.97 -16.41,-11.85 l -164.1,53.29"
       style="fill:#5f6062;fill-opacity:1;fill-rule:nonzero;stroke:none"
       id="path1078" /><path
       inkscape:connector-curvature="0"
       d="m 5432.18,4447.81 c -6.61,-0.62 -12.63,5.99 -13.59,14.99 -1.02,8.99 3.54,16.91 10.1,17.49 l 171.68,18.12 c 6.47,0.62 12.51,-5.99 13.56,-15.05 0.87,-8.99 -3.65,-16.9 -10.18,-17.48 l -171.57,-18.07"
       style="fill:#5f6062;fill-opacity:1;fill-rule:nonzero;stroke:none"
       id="path1080" /><path
       inkscape:connector-curvature="0"
       d="m 5303.28,4866.5 c -5.8,-3.22 -14,0.36 -18.55,8.17 -4.53,7.83 -3.63,16.92 2.12,20.11 l 149.47,86.4 c 5.68,3.18 13.92,-0.38 18.52,-8.26 4.48,-7.85 3.56,-16.91 -2.18,-20.13 l -149.38,-86.29"
       style="fill:#5f6062;fill-opacity:1;fill-rule:nonzero;stroke:none"
       id="path1082" /><path
       inkscape:connector-curvature="0"
       d="m 5015.21,5196.61 c -3.94,-5.34 -12.9,-5.37 -20.23,-0.09 -7.34,5.3 -10.2,13.99 -6.23,19.2 l 101.38,139.75 c 3.89,5.22 12.89,5.31 20.26,0 7.3,-5.38 10.14,-14.01 6.21,-19.27 l -101.39,-139.59"
       style="fill:#5f6062;fill-opacity:1;fill-rule:nonzero;stroke:none"
       id="path1084" /><path
       inkscape:connector-curvature="0"
       d="m 4617.8,5381 c -1.46,-6.49 -9.61,-10.18 -18.44,-8.33 -8.89,1.87 -15.03,8.62 -13.5,15.01 l 35.76,168.89 c 1.43,6.32 9.59,10.09 18.51,8.27 8.86,-1.95 14.95,-8.72 13.5,-15.13 L 4617.8,5381"
       style="fill:#5f6062;fill-opacity:1;fill-rule:nonzero;stroke:none"
       id="path1086" /><path
       inkscape:connector-curvature="0"
       d="m 5659.4,4338.18 0,-0.03 0,0.03 m 0,1.29 c 0,-0.05 0,-0.07 0,-0.11 0,0.03 0,0.08 0,0.11 m -1276.61,1277.8 c -68.13,0 -135.01,-5.35 -200.24,-15.63 65.24,10.27 132.12,15.61 200.24,15.61 705.05,0 1276.61,-571.54 1276.61,-1276.59 0,0.05 0,0.05 0,0.05 0,705.01 -571.58,1276.56 -1276.61,1276.56"
       style="fill:#464748;fill-opacity:1;fill-rule:nonzero;stroke:none"
       id="path1148" /><path
       inkscape:connector-curvature="0"
       d="m 4172.67,5303.91 c -14.29,0 -24.7,-17.46 -24.7,-50.31 0,-31.36 9.64,-49.17 24.51,-49.17 16.68,0 24.68,19.5 24.68,50.29 0,29.7 -7.61,49.19 -24.49,49.19 m 95.22,0 c -14.25,0 -24.64,-17.46 -24.64,-50.31 0,-31.36 9.63,-49.17 24.49,-49.17 16.71,0 24.66,19.5 24.66,50.29 0,29.7 -7.58,49.19 -24.51,49.19 M 5289.54,3519.07 c -2.52,0 -4.85,0.77 -6.61,2.41 l -128.23,115.41 c -4.85,4.52 -3.98,13.41 2.04,20.16 3.84,4.26 8.83,6.59 13.2,6.59 2.51,0 4.82,-0.77 6.59,-2.4 l 128.31,-115.47 c 4.8,-4.4 3.91,-13.33 -2.1,-20.14 -3.85,-4.24 -8.84,-6.56 -13.2,-6.56 m 32.09,120.06 c -3.95,0 -7.92,1.2 -11.37,3.68 -8.65,6.32 -10.6,18.49 -4.24,27.1 3.79,5.26 9.67,8.04 15.64,8.04 3.94,0 7.93,-1.22 11.38,-3.74 8.67,-6.26 10.59,-18.35 4.31,-27.06 -3.82,-5.26 -9.73,-8.02 -15.72,-8.02 m 121.98,74.95 c -1.34,0 -2.63,0.32 -3.79,0.99 l -121.18,69.99 c -4.65,2.64 -5.41,9.98 -1.75,16.33 2.78,4.75 7.25,7.63 11.25,7.63 1.32,0 2.59,-0.31 3.74,-0.97 l 121.25,-70.03 c 4.63,-2.64 5.37,-9.98 1.71,-16.28 -2.75,-4.77 -7.21,-7.66 -11.23,-7.66 m -0.64,135.14 c -2.62,0 -5.3,0.54 -7.86,1.69 -9.77,4.38 -14.23,15.89 -9.82,25.57 3.24,7.31 10.25,11.57 17.62,11.57 2.65,0 5.35,-0.55 7.93,-1.7 9.77,-4.33 14.18,-15.76 9.82,-25.6 -3.22,-7.24 -10.28,-11.53 -17.69,-11.53 m 103.54,109.9 c -0.95,0 -1.9,0.15 -2.82,0.46 l -164.1,53.29 c -6.27,2.1 -9.08,10.59 -6.3,19.24 2.39,7.31 8.06,12.32 13.54,12.32 0.95,0 1.9,-0.15 2.81,-0.47 l 164.15,-53.29 c 6.25,-2.05 9.08,-10.59 6.31,-19.24 -2.4,-7.33 -8.08,-12.31 -13.59,-12.31 m -28.56,120.84 c -1.32,0 -2.67,0.14 -4.02,0.42 -10.47,2.28 -17.21,12.6 -14.9,23.03 1.9,9.14 9.86,15.35 18.76,15.36 1.37,0 2.77,-0.16 4.18,-0.47 10.46,-2.2 17.15,-12.42 14.93,-22.98 -1.94,-9.15 -10,-15.36 -18.95,-15.36 m -417.07,39.77 -5.19,11.5 c 8.34,7.06 20.22,12.27 34.15,12.27 25.96,0 36.93,-17.83 36.93,-35.09 0,-22.28 -16.17,-40.28 -41.58,-64.77 l -9.65,-8.91 0,-0.35 54.18,0 0,-13.56 -76.97,0 0,10.02 12.75,12.45 c 30.83,29.31 44.75,44.9 44.93,63.06 0,12.27 -5.94,23.58 -23.94,23.58 -10.95,0 -20.07,-5.56 -25.61,-10.2 m 125.31,-100.97 c -23.55,0 -39.55,22.1 -39.9,62.01 0,40.43 17.44,62.73 41.98,62.73 25.39,0 39.86,-22.67 39.86,-61.08 0,-41.02 -15.24,-63.66 -41.94,-63.66 m 95.25,0 c -23.55,0 -39.52,22.1 -39.89,62.01 0,40.43 17.46,62.73 41.95,62.73 25.41,0 39.89,-22.67 39.89,-61.08 0,-41.02 -15.21,-63.66 -41.95,-63.66 m 282.21,180.3 c -0.26,0 -0.5,0.01 -0.76,0.04 l -139.18,14.64 c -5.33,0.52 -9,6.91 -8.24,14.21 0.76,6.93 5.21,12.2 10.23,12.2 0.24,0 0.5,-0.01 0.75,-0.04 l 139.24,-14.63 c 5.32,-0.54 8.97,-6.93 8.24,-14.17 -0.8,-6.95 -5.27,-12.25 -10.28,-12.25 m -60.37,160.98 c 0.02,0 0.06,0 0.08,0 10.7,0 19.32,-8.65 19.32,-19.38 0.02,-10.75 -8.67,-19.42 -19.38,-19.43 -10.69,0.04 -19.46,8.73 -19.36,19.43 0,10.77 8.6,19.38 19.25,19.38 0.03,0 0.06,0 0.09,0 m -409.29,106.27 -3.15,12.46 26.34,14.09 13.93,0 0,-120.64 -15.77,0 0,105.42 -0.36,0 -20.99,-11.33 m 120.14,-96.13 c -25.25,0 -40.45,15.04 -40.45,32.67 0,15.23 9.09,25.99 23.92,32.31 l -0.16,0.53 c -13.38,6.32 -19.15,16.72 -19.15,27.11 0,19.1 16.16,32.1 37.31,32.1 23.39,0 35.09,-14.66 35.09,-29.7 0,-10.19 -4.99,-21.14 -19.85,-28.22 l 0,-0.53 c 15.04,-5.95 24.3,-16.54 24.3,-31.18 0,-20.99 -18,-35.09 -41.01,-35.09 m 94.5,0 c -23.56,0 -39.52,22.09 -39.9,61.99 0,40.46 17.45,62.73 41.96,62.73 25.41,0 39.86,-22.64 39.86,-61.05 0,-41.04 -15.2,-63.67 -41.92,-63.67 m 82.69,77.59 c -6.27,0 -11.81,6.42 -12.73,15.03 -1.02,8.99 3.54,16.91 10.1,17.49 l 171.68,18.12 c 0.28,0.03 0.56,0.04 0.84,0.04 6.15,0 11.72,-6.42 12.72,-15.09 0.87,-8.99 -3.65,-16.9 -10.18,-17.48 l -171.57,-18.07 c -0.28,-0.03 -0.57,-0.04 -0.86,-0.04 m 86.66,114.78 c -8.99,0 -17.1,6.26 -18.95,15.36 -2.28,10.57 4.4,20.77 14.9,22.97 1.37,0.3 2.75,0.44 4.09,0.44 8.92,0 16.94,-6.21 18.88,-15.34 2.23,-10.52 -4.44,-20.79 -14.9,-23.01 -1.35,-0.29 -2.7,-0.42 -4.02,-0.42 m -98.34,101.44 c -4.48,0 -9.12,4.06 -11.06,10 -2.23,6.97 0,13.92 5.08,15.6 l 133.15,43.25 c 0.74,0.25 1.49,0.36 2.26,0.36 4.47,0 9.07,-4.05 11.01,-9.98 2.22,-6.97 0.02,-13.96 -5.06,-15.59 l -133.13,-43.29 c -0.73,-0.23 -1.48,-0.35 -2.25,-0.35 m 23.38,129.3 c -7.45,0 -14.57,4.26 -17.73,11.52 -4.41,9.88 0,21.23 9.82,25.54 2.58,1.17 5.28,1.73 7.92,1.73 7.38,0 14.42,-4.28 17.63,-11.52 4.38,-9.82 -0.04,-21.29 -9.78,-25.62 -2.56,-1.12 -5.23,-1.65 -7.86,-1.65 m -441.79,42.45 -3.15,12.4 26.36,14.13 13.92,0 0,-120.63 -15.78,0 0,105.39 -0.35,0 -21,-11.29 m 121.78,-96.15 c -25.78,0 -42.67,20.03 -42.67,51.4 0,23.76 8.53,42.49 20.43,54.39 10.02,9.83 23.37,15.94 38.61,17.81 4.78,0.74 8.88,0.92 11.85,0.92 l 0,-13.36 c -0.78,0.04 -1.62,0.06 -2.52,0.06 -2.85,0 -6.19,-0.23 -9.74,-0.77 -25.58,-4.29 -39.13,-23.03 -41.92,-42.91 l 0.56,0 c 5.75,7.62 15.78,13.93 29.13,13.93 21.33,0 36.34,-15.41 36.34,-38.99 0,-22.07 -15.01,-42.48 -40.07,-42.48 m 92.87,0 c -23.58,0 -39.55,22.1 -39.92,61.98 0,40.45 17.46,62.74 41.95,62.74 25.43,0 39.9,-22.65 39.9,-61.07 0,-41.01 -15.22,-63.65 -41.93,-63.65 m 82.72,125.73 c -4.97,0 -10.45,3.48 -13.87,9.35 -4.53,7.83 -3.63,16.92 2.12,20.11 l 149.47,86.4 c 1.41,0.78 2.96,1.16 4.58,1.16 4.94,0 10.47,-3.48 13.94,-9.42 4.48,-7.85 3.56,-16.91 -2.18,-20.13 l -149.38,-86.29 c -1.44,-0.8 -3.03,-1.18 -4.68,-1.18 m 23.06,138.09 c -6,0 -11.91,2.76 -15.64,7.98 -6.41,8.79 -4.43,20.79 4.27,27.05 3.44,2.51 7.44,3.72 11.39,3.72 5.97,0 11.85,-2.76 15.67,-7.98 6.35,-8.72 4.38,-20.82 -4.27,-27.07 -3.45,-2.5 -7.46,-3.7 -11.42,-3.7 m -506.11,117.31 -3.16,12.41 26.36,14.1 13.91,0 0,-120.61 -15.78,0 0,105.38 -0.34,0 -20.99,-11.28 m 75.6,-61.24 0,10.73 53.81,77.02 17.65,0 0,-74.97 16.88,0 0,-12.78 -16.88,0 0,-32.86 -15.44,0 0,32.86 -56.02,0 m 139.03,-34.91 c -23.55,0 -39.51,22.11 -39.91,61.99 0,40.46 17.48,62.72 41.97,62.72 25.42,0 39.89,-22.64 39.89,-61.06 0,-41.01 -15.23,-63.65 -41.95,-63.65 m 164.86,32.49 c -3.55,0 -7.6,1.9 -10.71,5.35 -4.89,5.46 -5.65,12.73 -1.71,16.33 l 104.06,93.69 c 1.44,1.29 3.3,1.91 5.34,1.91 3.55,0 7.59,-1.89 10.72,-5.36 4.84,-5.46 5.66,-12.72 1.68,-16.31 L 5200.38,5059 c -1.43,-1.32 -3.31,-1.94 -5.34,-1.94 m -35.75,126.64 c -4.62,0 -9.25,1.65 -12.93,5.01 -8.02,7.24 -8.62,19.38 -1.43,27.31 3.8,4.27 9.09,6.44 14.39,6.44 4.61,0 9.25,-1.64 12.97,-4.98 8.02,-7.19 8.61,-19.43 1.5,-27.36 -3.86,-4.24 -9.18,-6.42 -14.5,-6.42 m -706.23,104.21 -3.17,12.46 26.36,14.09 13.89,0 0,-120.6 -15.76,0 0,105.4 -0.35,0 -20.97,-11.35 m -400.88,0 -3.16,12.48 26.35,14.09 13.93,0 0,-120.62 -15.77,0 0,105.4 -0.37,0 -20.98,-11.35 m 119.38,-96.09 c -23.59,0 -39.52,22.07 -39.9,61.97 0,40.44 17.44,62.73 41.93,62.73 25.39,0 39.91,-22.64 39.91,-61.06 0,-41 -15.23,-63.64 -41.94,-63.64 m 95.22,0 c -23.53,0 -39.5,22.07 -39.89,61.97 0,40.44 17.47,62.73 41.97,62.73 25.4,0 39.89,-22.64 39.89,-61.06 0,-41 -15.22,-63.64 -41.97,-63.64 m 275.6,100.95 -5.21,11.49 c 8.37,7.07 20.22,12.26 34.17,12.26 25.97,0 36.92,-17.82 36.92,-35.09 0,-22.27 -16.15,-40.27 -41.56,-64.77 l -9.67,-8.92 0,-0.35 54.2,0 0,-13.53 -77.03,0 0,10 12.81,12.43 c 30.8,29.34 44.72,44.91 44.9,63.12 0,12.23 -5.92,23.56 -23.92,23.56 -10.96,0 -20.08,-5.59 -25.61,-10.2 m 125.33,-100.97 c -23.6,0 -39.55,22.09 -39.93,61.99 0,40.44 17.47,62.73 41.95,62.73 25.41,0 39.9,-22.64 39.9,-61.07 0,-41.04 -15.21,-63.65 -41.92,-63.65 m 338.59,0.78 c -3.63,0 -7.68,1.31 -11.32,3.94 -7.34,5.3 -10.2,13.99 -6.23,19.2 l 101.38,139.75 c 1.96,2.62 5.2,3.94 8.87,3.94 3.64,0 7.72,-1.3 11.39,-3.94 7.3,-5.38 10.14,-14.01 6.21,-19.27 l -101.39,-139.59 c -1.98,-2.69 -5.23,-4.03 -8.91,-4.03 m -43.29,133.72 c -3.28,0 -6.61,0.84 -9.63,2.63 -9.4,5.41 -12.5,17.17 -7.11,26.42 3.58,6.24 10.07,9.73 16.78,9.73 3.28,0 6.62,-0.84 9.69,-2.6 9.33,-5.4 12.49,-17.24 7.15,-26.47 -3.64,-6.21 -10.18,-9.71 -16.88,-9.71 m -1160.47,-0.03 c -6.68,0 -13.17,3.48 -16.77,9.7 -5.4,9.27 -2.19,21.16 7.06,26.51 3.06,1.76 6.4,2.6 9.71,2.6 6.7,0 13.22,-3.48 16.8,-9.72 5.35,-9.26 2.19,-21.12 -7.11,-26.48 -3.07,-1.77 -6.41,-2.61 -9.69,-2.61 m 938.89,98.69 c -1.99,0 -4,0.32 -5.98,0.97 -10.31,3.37 -15.81,14.23 -12.44,24.4 2.62,8.19 10.17,13.42 18.36,13.42 1.99,0 4.02,-0.31 6.03,-0.96 10.24,-3.31 15.8,-14.23 12.5,-24.39 -2.71,-8.19 -10.33,-13.44 -18.47,-13.44 m -717.27,0 c -8.18,0 -15.78,5.2 -18.42,13.41 -3.32,10.16 2.26,21.11 12.46,24.43 1.99,0.65 4.01,0.96 6,0.96 8.17,0 15.76,-5.21 18.44,-13.42 3.3,-10.18 -2.27,-21.11 -12.47,-24.43 -1.99,-0.64 -4.01,-0.95 -6.01,-0.95 m -86.97,-100.45 c -4.17,0 -7.73,1.75 -9.16,4.95 l -56.95,127.88 c -2.16,4.89 1.52,11.25 8.19,14.21 2.33,1.03 4.72,1.52 6.94,1.52 4.17,0 7.72,-1.74 9.13,-4.94 l 56.95,-127.9 c 2.18,-4.85 -1.5,-11.24 -8.2,-14.2 -2.32,-1.03 -4.69,-1.52 -6.9,-1.52 m 891.23,-0.01 c -2.21,0 -4.61,0.5 -6.94,1.53 -6.67,3.02 -10.38,9.34 -8.21,14.2 l 56.97,127.93 c 1.4,3.18 4.97,4.92 9.13,4.92 2.22,0 4.6,-0.49 6.92,-1.52 6.68,-3.01 10.37,-9.33 8.17,-14.22 l -56.94,-127.88 c -1.38,-3.22 -4.94,-4.96 -9.1,-4.96 m -324.18,150.93 c -0.71,0 -1.43,0.04 -2.15,0.12 -10.77,1.13 -18.43,10.61 -17.23,21.27 1,9.93 9.35,17.38 19.21,17.38 0.68,0 1.36,-0.04 2.06,-0.11 10.7,-1.14 18.41,-10.64 17.28,-21.27 -1.09,-9.94 -9.43,-17.39 -19.17,-17.39 m -242.8,-0.04 c -9.78,0 -18.19,7.42 -19.23,17.37 -1.12,10.65 6.58,20.2 17.25,21.33 0.69,0.07 1.38,0.11 2.05,0.11 9.8,0 18.21,-7.43 19.27,-17.38 1.14,-10.65 -6.62,-20.2 -17.27,-21.31 -0.69,-0.08 -1.38,-0.12 -2.07,-0.12 m -99.81,-103.18 c -6.94,0 -12.76,3.43 -13.87,8.71 l -35.88,168.81 c -1.37,6.48 4.67,13.16 13.51,15.07 1.57,0.32 3.1,0.48 4.59,0.48 6.97,0 12.79,-3.42 13.87,-8.73 l 35.92,-168.81 c 1.37,-6.43 -4.69,-13.17 -13.54,-15.04 -1.57,-0.33 -3.11,-0.49 -4.6,-0.49 m 442.26,-0.02 c -1.46,0 -2.99,0.16 -4.53,0.48 -8.89,1.87 -15.03,8.62 -13.5,15.01 l 35.76,168.89 c 1.19,5.24 6.99,8.72 14.03,8.72 1.46,0 2.96,-0.15 4.48,-0.45 8.86,-1.95 14.95,-8.72 13.5,-15.13 L 4617.8,5381 c -1.2,-5.36 -6.96,-8.81 -13.91,-8.81 m -221.1,47.09 c -7.32,0 -13.26,4.31 -13.26,9.65 l 0,139.99 c 0,5.34 5.94,9.65 13.26,9.65 7.35,0 13.25,-4.31 13.25,-9.65 l 0,-139.99 c 0,-5.34 -5.9,-9.65 -13.25,-9.65 m 0,197.97 c -68.12,0 -135,-5.34 -200.24,-15.61 -211.69,-33.39 -406.06,-118.86 -569.69,-242.8 12.32,-2.98 24.55,-6.05 36.78,-9.24 1.35,2.13 3.22,4.13 5.53,5.82 3.66,2.67 7.76,4 11.42,4 3.66,0 6.88,-1.33 8.8,-4 l 11.55,-15.88 c 765.32,-213.82 1339.74,-827.62 1431.98,-1575.13 9.83,-10.18 15.13,-27.65 15.13,-50.88 0,-15.64 -2.22,-28.6 -6.45,-38.66 2.87,-40.48 4.32,-81.24 4.32,-122.37 0,-87.97 -6.81,-174.46 -19.65,-259.2 329.95,230.26 546.28,612.16 547.13,1044.85 l 0,0.03 c 0,0.4 0,0.78 0,1.18 0,0.04 0,0.06 0,0.11 0,0.42 0,0.81 0,1.24 0,705 -571.56,1276.54 -1276.61,1276.54"
       style="display:none;fill:#464748;fill-opacity:1;fill-rule:nonzero;stroke:none"
       id="path1150" /><path
       inkscape:connector-curvature="0"
       d="m 4382.79,5578.57 c -7.32,0 -13.26,-4.31 -13.26,-9.65 l 0,-139.99 c 0,-5.34 5.94,-9.65 13.26,-9.65 7.35,0 13.25,4.31 13.25,9.65 l 0,139.99 c 0,5.34 -5.9,9.65 -13.25,9.65"
       style="fill:#be3b48;fill-opacity:1;fill-rule:nonzero;stroke:none"
       id="path1152" /><path
       inkscape:connector-curvature="0"
       d="m 3886.21,5473.07 c -2.22,0 -4.61,-0.49 -6.94,-1.52 -6.67,-2.96 -10.35,-9.32 -8.19,-14.21 l 56.95,-127.88 c 1.43,-3.2 4.99,-4.95 9.16,-4.95 2.21,0 4.58,0.49 6.9,1.52 6.7,2.96 10.38,9.35 8.2,14.2 l -56.95,127.9 c -1.41,3.2 -4.96,4.94 -9.13,4.94"
       style="fill:#be3b48;fill-opacity:1;fill-rule:nonzero;stroke:none"
       id="path1154" /><path
       inkscape:connector-curvature="0"
       d="m 5328.14,3809.02 c -4,0 -8.47,-2.88 -11.25,-7.63 -3.66,-6.35 -2.9,-13.69 1.75,-16.33 l 121.18,-69.99 c 1.16,-0.67 2.45,-0.99 3.79,-0.99 4.02,0 8.48,2.89 11.23,7.66 3.66,6.3 2.92,13.64 -1.71,16.28 l -121.25,70.03 c -1.15,0.66 -2.42,0.97 -3.74,0.97"
       style="fill:#be3b48;fill-opacity:1;fill-rule:nonzero;stroke:none"
       id="path1156" /><path
       inkscape:connector-curvature="0"
       d="m 5465.7,4240.15 c -5.02,0 -9.47,-5.27 -10.23,-12.2 -0.76,-7.3 2.91,-13.69 8.24,-14.21 l 139.18,-14.64 c 0.26,-0.03 0.5,-0.04 0.76,-0.04 5.01,0 9.48,5.3 10.28,12.25 0.73,7.24 -2.92,13.63 -8.24,14.17 l -139.24,14.63 c -0.25,0.03 -0.51,0.04 -0.75,0.04"
       style="fill:#be3b48;fill-opacity:1;fill-rule:nonzero;stroke:none"
       id="path1158" /><path
       inkscape:connector-curvature="0"
       d="m 5549.07,4733.2 c -0.77,0 -1.52,-0.11 -2.26,-0.36 l -133.15,-43.25 c -5.08,-1.68 -7.31,-8.63 -5.08,-15.6 1.94,-5.94 6.58,-10 11.06,-10 0.77,0 1.52,0.12 2.25,0.35 l 133.13,43.29 c 5.08,1.63 7.28,8.62 5.06,15.59 -1.94,5.93 -6.54,9.98 -11.01,9.98"
       style="fill:#be3b48;fill-opacity:1;fill-rule:nonzero;stroke:none"
       id="path1160" /><path
       inkscape:connector-curvature="0"
       d="m 5292.02,5174.34 c -2.04,0 -3.9,-0.62 -5.34,-1.91 l -104.06,-93.69 c -3.94,-3.6 -3.18,-10.87 1.71,-16.33 3.11,-3.45 7.16,-5.35 10.71,-5.35 2.03,0 3.91,0.62 5.34,1.94 l 104.04,93.67 c 3.98,3.59 3.16,10.85 -1.68,16.31 -3.13,3.47 -7.17,5.36 -10.72,5.36"
       style="fill:#be3b48;fill-opacity:1;fill-rule:nonzero;stroke:none"
       id="path1162" /><path
       inkscape:connector-curvature="0"
       d="m 4879.37,5473.08 c -4.16,0 -7.73,-1.74 -9.13,-4.92 l -56.97,-127.93 c -2.17,-4.86 1.54,-11.18 8.21,-14.2 2.33,-1.03 4.73,-1.53 6.94,-1.53 4.16,0 7.72,1.74 9.1,4.96 l 56.94,127.88 c 2.2,4.89 -1.49,11.21 -8.17,14.22 -2.32,1.03 -4.7,1.52 -6.92,1.52"
       style="fill:#be3b48;fill-opacity:1;fill-rule:nonzero;stroke:none"
       id="path1164" /><path
       inkscape:connector-curvature="0"
       d="m 4261.51,5514.2 c -0.67,0 -1.36,-0.04 -2.05,-0.11 -10.67,-1.13 -18.37,-10.68 -17.25,-21.33 1.04,-9.95 9.45,-17.37 19.23,-17.37 0.69,0 1.38,0.04 2.07,0.12 10.65,1.11 18.41,10.66 17.27,21.31 -1.06,9.95 -9.47,17.38 -19.27,17.38"
       style="fill:#cdcac9;fill-opacity:1;fill-rule:nonzero;stroke:none"
       id="path1166" /><path
       inkscape:connector-curvature="0"
       d="m 4024.2,5463.76 c -1.99,0 -4.01,-0.31 -6,-0.96 -10.2,-3.32 -15.78,-14.27 -12.46,-24.43 2.64,-8.21 10.24,-13.41 18.42,-13.41 2,0 4.02,0.31 6.01,0.95 10.2,3.32 15.77,14.25 12.47,24.43 -2.68,8.21 -10.27,13.42 -18.44,13.42"
       style="fill:#cdcac9;fill-opacity:1;fill-rule:nonzero;stroke:none"
       id="path1168" /><path
       inkscape:connector-curvature="0"
       d="m 3802.54,5365.08 c -3.31,0 -6.65,-0.84 -9.71,-2.6 -9.25,-5.35 -12.46,-17.24 -7.06,-26.51 3.6,-6.22 10.09,-9.7 16.77,-9.7 3.28,0 6.62,0.84 9.69,2.61 9.3,5.36 12.46,17.22 7.11,26.48 -3.58,6.24 -10.1,9.72 -16.8,9.72"
       style="fill:#cdcac9;fill-opacity:1;fill-rule:nonzero;stroke:none"
       id="path1170" /><path
       inkscape:connector-curvature="0"
       d="m 5321.66,3677.95 c -5.97,0 -11.85,-2.78 -15.64,-8.04 -6.36,-8.61 -4.41,-20.78 4.24,-27.1 3.45,-2.48 7.42,-3.68 11.37,-3.68 5.99,0 11.9,2.76 15.72,8.02 6.28,8.71 4.36,20.8 -4.31,27.06 -3.45,2.52 -7.44,3.74 -11.38,3.74"
       style="fill:#cdcac9;fill-opacity:1;fill-rule:nonzero;stroke:none"
       id="path1172" /><path
       inkscape:connector-curvature="0"
       d="m 5442.91,3888.05 c -7.37,0 -14.38,-4.26 -17.62,-11.57 -4.41,-9.68 0.05,-21.19 9.82,-25.57 2.56,-1.15 5.24,-1.69 7.86,-1.69 7.41,0 14.47,4.29 17.69,11.53 4.36,9.84 -0.05,21.27 -9.82,25.6 -2.58,1.15 -5.28,1.7 -7.93,1.7"
       style="fill:#cdcac9;fill-opacity:1;fill-rule:nonzero;stroke:none"
       id="path1174" /><path
       inkscape:connector-curvature="0"
       d="m 5517.79,4118.77 c -8.9,-0.01 -16.86,-6.22 -18.76,-15.36 -2.31,-10.43 4.43,-20.75 14.9,-23.03 1.35,-0.28 2.7,-0.42 4.02,-0.42 8.95,0 17.01,6.21 18.95,15.36 2.22,10.56 -4.47,20.78 -14.93,22.98 -1.41,0.31 -2.81,0.47 -4.18,0.47"
       style="fill:#cdcac9;fill-opacity:1;fill-rule:nonzero;stroke:none"
       id="path1176" /><path
       inkscape:connector-curvature="0"
       d="m 5543.36,4360.04 c -0.02,0 -0.06,0 -0.08,0 -0.03,0 -0.06,0 -0.09,0 -10.65,0 -19.25,-8.61 -19.25,-19.38 -0.1,-10.7 8.67,-19.39 19.36,-19.43 10.71,0.01 19.4,8.68 19.38,19.43 0,10.73 -8.62,19.38 -19.32,19.38"
       style="fill:#cdcac9;fill-opacity:1;fill-rule:nonzero;stroke:none"
       id="path1178" /><path
       inkscape:connector-curvature="0"
       d="m 5518.02,4601.32 c -1.34,0 -2.72,-0.14 -4.09,-0.44 -10.5,-2.2 -17.18,-12.4 -14.9,-22.97 1.85,-9.1 9.96,-15.36 18.95,-15.36 1.32,0 2.67,0.13 4.02,0.42 10.46,2.22 17.13,12.49 14.9,23.01 -1.94,9.13 -9.96,15.34 -18.88,15.34"
       style="fill:#cdcac9;fill-opacity:1;fill-rule:nonzero;stroke:none"
       id="path1180" /><path
       inkscape:connector-curvature="0"
       d="m 5443.03,4832.08 c -2.64,0 -5.34,-0.56 -7.92,-1.73 -9.82,-4.31 -14.23,-15.66 -9.82,-25.54 3.16,-7.26 10.28,-11.52 17.73,-11.52 2.63,0 5.3,0.53 7.86,1.65 9.74,4.33 14.16,15.8 9.78,25.62 -3.21,7.24 -10.25,11.52 -17.63,11.52"
       style="fill:#cdcac9;fill-opacity:1;fill-rule:nonzero;stroke:none"
       id="path1182" /><path
       inkscape:connector-curvature="0"
       d="m 5321.68,5042.16 c -3.95,0 -7.95,-1.21 -11.39,-3.72 -8.7,-6.26 -10.68,-18.26 -4.27,-27.05 3.73,-5.22 9.64,-7.98 15.64,-7.98 3.96,0 7.97,1.2 11.42,3.7 8.65,6.25 10.62,18.35 4.27,27.07 -3.82,5.22 -9.7,7.98 -15.67,7.98"
       style="fill:#cdcac9;fill-opacity:1;fill-rule:nonzero;stroke:none"
       id="path1184" /><path
       inkscape:connector-curvature="0"
       d="m 5159.32,5222.46 c -5.3,0 -10.59,-2.17 -14.39,-6.44 -7.19,-7.93 -6.59,-20.07 1.43,-27.31 3.68,-3.36 8.31,-5.01 12.93,-5.01 5.32,0 10.64,2.18 14.5,6.42 7.11,7.93 6.52,20.17 -1.5,27.36 -3.72,3.34 -8.36,4.98 -12.97,4.98"
       style="fill:#cdcac9;fill-opacity:1;fill-rule:nonzero;stroke:none"
       id="path1186" /><path
       inkscape:connector-curvature="0"
       d="m 4963.05,5365.08 c -6.71,0 -13.2,-3.49 -16.78,-9.73 -5.39,-9.25 -2.29,-21.01 7.11,-26.42 3.02,-1.79 6.35,-2.63 9.63,-2.63 6.7,0 13.24,3.5 16.88,9.71 5.34,9.23 2.18,21.07 -7.15,26.47 -3.07,1.76 -6.41,2.6 -9.69,2.6"
       style="fill:#cdcac9;fill-opacity:1;fill-rule:nonzero;stroke:none"
       id="path1188" /><path
       inkscape:connector-curvature="0"
       d="m 4741.37,5463.75 c -8.19,0 -15.74,-5.23 -18.36,-13.42 -3.37,-10.17 2.13,-21.03 12.44,-24.4 1.98,-0.65 3.99,-0.97 5.98,-0.97 8.14,0 15.76,5.25 18.47,13.44 3.3,10.16 -2.26,21.08 -12.5,24.39 -2.01,0.65 -4.04,0.96 -6.03,0.96"
       style="fill:#cdcac9;fill-opacity:1;fill-rule:nonzero;stroke:none"
       id="path1190" /><path
       inkscape:connector-curvature="0"
       d="m 4504.07,5514.2 c -9.86,0 -18.21,-7.45 -19.21,-17.38 -1.2,-10.66 6.46,-20.14 17.23,-21.27 0.72,-0.08 1.44,-0.12 2.15,-0.12 9.74,0 18.08,7.45 19.17,17.39 1.13,10.63 -6.58,20.13 -17.28,21.27 -0.7,0.07 -1.38,0.11 -2.06,0.11"
       style="fill:#cdcac9;fill-opacity:1;fill-rule:nonzero;stroke:none"
       id="path1192" /><path
       inkscape:connector-curvature="0"
       d="m 4129.98,5565.28 c -1.49,0 -3.02,-0.16 -4.59,-0.48 -8.84,-1.91 -14.88,-8.59 -13.51,-15.07 l 35.88,-168.81 c 1.11,-5.28 6.93,-8.71 13.87,-8.71 1.49,0 3.03,0.16 4.6,0.49 8.85,1.87 14.91,8.61 13.54,15.04 l -35.92,168.81 c -1.08,5.31 -6.9,8.73 -13.87,8.73"
       style="fill:#5f6062;fill-opacity:1;fill-rule:nonzero;stroke:none"
       id="path1194" /><path
       inkscape:connector-curvature="0"
       d="m 3666.59,5359.42 c -3.66,0 -7.76,-1.33 -11.42,-4 -2.31,-1.69 -4.18,-3.69 -5.53,-5.82 12.45,-3.24 24.95,-6.61 37.3,-10.06 l -11.55,15.88 c -1.92,2.67 -5.14,4 -8.8,4"
       style="fill:#5f6062;fill-opacity:1;fill-rule:nonzero;stroke:none"
       id="path1196" /><path
       inkscape:connector-curvature="0"
       d="m 5169.94,3663.64 c -4.37,0 -9.36,-2.33 -13.2,-6.59 -6.02,-6.75 -6.89,-15.64 -2.04,-20.16 l 128.23,-115.41 c 1.76,-1.64 4.09,-2.41 6.61,-2.41 4.36,0 9.35,2.32 13.2,6.56 6.01,6.81 6.9,15.74 2.1,20.14 l -128.31,115.47 c -1.77,1.63 -4.08,2.4 -6.59,2.4"
       style="fill:#5f6062;fill-opacity:1;fill-rule:nonzero;stroke:none"
       id="path1198" /><path
       inkscape:connector-curvature="0"
       d="m 5386.83,4044.43 c -5.48,0 -11.15,-5.01 -13.54,-12.32 -2.78,-8.65 0.03,-17.14 6.3,-19.24 l 164.1,-53.29 c 0.92,-0.31 1.87,-0.46 2.82,-0.46 5.51,0 11.19,4.98 13.59,12.31 2.77,8.65 -0.06,17.19 -6.31,19.24 l -164.15,53.29 c -0.91,0.32 -1.86,0.47 -2.81,0.47"
       style="fill:#5f6062;fill-opacity:1;fill-rule:nonzero;stroke:none"
       id="path1200" /><path
       inkscape:connector-curvature="0"
       d="m 5601.21,4498.45 c -0.28,0 -0.56,-0.01 -0.84,-0.04 l -171.68,-18.12 c -6.56,-0.58 -11.12,-8.5 -10.1,-17.49 0.92,-8.61 6.46,-15.03 12.73,-15.03 0.29,0 0.58,0.01 0.86,0.04 l 171.57,18.07 c 6.53,0.58 11.05,8.49 10.18,17.48 -1,8.67 -6.57,15.09 -12.72,15.09"
       style="fill:#5f6062;fill-opacity:1;fill-rule:nonzero;stroke:none"
       id="path1202" /><path
       inkscape:connector-curvature="0"
       d="m 5440.9,4982.34 c -1.62,0 -3.17,-0.38 -4.58,-1.16 l -149.47,-86.4 c -5.75,-3.19 -6.65,-12.28 -2.12,-20.11 3.42,-5.87 8.9,-9.35 13.87,-9.35 1.65,0 3.24,0.38 4.68,1.18 l 149.38,86.29 c 5.74,3.22 6.66,12.28 2.18,20.13 -3.47,5.94 -9,9.42 -13.94,9.42"
       style="fill:#5f6062;fill-opacity:1;fill-rule:nonzero;stroke:none"
       id="path1204" /><path
       inkscape:connector-curvature="0"
       d="m 5099,5359.41 c -3.67,0 -6.91,-1.32 -8.87,-3.94 l -101.38,-139.75 c -3.97,-5.21 -1.11,-13.9 6.23,-19.2 3.64,-2.63 7.69,-3.94 11.32,-3.94 3.68,0 6.93,1.34 8.91,4.03 l 101.39,139.59 c 3.93,5.26 1.09,13.89 -6.21,19.27 -3.67,2.64 -7.75,3.94 -11.39,3.94"
       style="fill:#5f6062;fill-opacity:1;fill-rule:nonzero;stroke:none"
       id="path1206" /><path
       inkscape:connector-curvature="0"
       d="m 4635.65,5565.29 c -7.04,0 -12.84,-3.48 -14.03,-8.72 l -35.76,-168.89 c -1.53,-6.39 4.61,-13.14 13.5,-15.01 1.54,-0.32 3.07,-0.48 4.53,-0.48 6.95,0 12.71,3.45 13.91,8.81 l 35.83,168.71 c 1.45,6.41 -4.64,13.18 -13.5,15.13 -1.52,0.3 -3.02,0.45 -4.48,0.45"
       style="fill:#5f6062;fill-opacity:1;fill-rule:nonzero;stroke:none"
       id="path1208" /><path
       inkscape:connector-curvature="0"
       d="m 4373.9773,4396.061 1165.07,431.43 -1143,-486.87 -22.07,55.44"
       style="fill:#be1c2e;fill-opacity:1;fill-rule:nonzero;stroke:none"
       id="pointer" /></g></svg>